<svg width="34" height="22" viewBox="0 0 34 22" fill="none" xmlns="http://www.w3.org/2000/svg">
<path d="M0.5 4C0.5 2.067 2.067 0.5 4 0.5H30C31.933 0.5 33.5 2.067 33.5 4V18C33.5 19.933 31.933 21.5 30 21.5H4C2.067 21.5 0.5 19.933 0.5 18V4Z" fill="white" stroke="#EEEEEE"/>
<path fill-rule="evenodd" clip-rule="evenodd" d="M15.0897 10.8526C15.0897 9.01565 15.9384 7.38019 17.2598 6.3218C16.2854 5.54135 15.0545 5.07411 13.7149 5.07411C10.5587 5.07411 8 7.66124 8 10.8526C8 14.0439 10.5587 16.631 13.7149 16.631C15.0545 16.631 16.2854 16.1638 17.2598 15.3833C15.9384 14.3249 15.0897 12.6895 15.0897 10.8526Z" fill="#EB001B"/>
<path fill-rule="evenodd" clip-rule="evenodd" d="M15.0898 10.8526C15.0898 12.6895 15.9385 14.3249 17.26 15.3833C18.5813 14.3249 19.43 12.6895 19.43 10.8526C19.43 9.01565 18.5813 7.38018 17.26 6.32179C15.9385 7.38018 15.0898 9.01565 15.0898 10.8526Z" fill="#FF5E00"/>
<path fill-rule="evenodd" clip-rule="evenodd" d="M20.8046 5.07411C19.465 5.07411 18.2341 5.54135 17.2598 6.3218C18.5811 7.38026 19.4298 9.01565 19.4298 10.8526C19.4298 12.6895 18.5811 14.3249 17.2598 15.3833C18.2341 16.1638 19.465 16.631 20.8046 16.631C23.9608 16.631 26.5195 14.0439 26.5195 10.8526C26.5195 7.66124 23.9608 5.07411 20.8046 5.07411Z" fill="#F79E1C"/>
</svg>
