<svg width="148" height="148" viewBox="0 0 148 148" fill="none" xmlns="http://www.w3.org/2000/svg">
<path fill-rule="evenodd" clip-rule="evenodd" d="M74 148C114.869 148 148 114.869 148 74C148 33.1309 114.869 0 74 0C33.1309 0 0 33.1309 0 74C0 114.869 33.1309 148 74 148Z" fill="#91B1E7"/>
<mask id="mask0_18_228" style="mask-type:alpha" maskUnits="userSpaceOnUse" x="0" y="0" width="148" height="148">
<path fill-rule="evenodd" clip-rule="evenodd" d="M74 148C114.869 148 148 114.869 148 74C148 33.1309 114.869 0 74 0C33.1309 0 0 33.1309 0 74C0 114.869 33.1309 148 74 148Z" fill="white"/>
</mask>
<g mask="url(#mask0_18_228)">
<path d="M57.6905 113.695L38.1627 124.197C37.0167 124.813 27.9582 128.489 27 129.315C45.1206 142.96 61.1135 146 77.1714 146C93.1108 146 110.647 137.322 122 127.986C120.953 127.114 116.882 124.954 115.622 124.336L94.7112 114.028C92.0093 112.696 90.3028 109.974 90.3028 106.996V98.9074C90.8906 98.2475 91.5623 97.4002 92.281 96.3994C95.131 92.4305 97.2871 88.0646 98.7812 83.4845C101.463 82.6688 103.439 80.2265 103.439 77.3241V68.6897C103.439 66.7905 102.582 65.0933 101.251 63.9051V51.4235C101.251 51.4235 103.852 32 77.1714 32C50.4914 32 53.0919 51.4235 53.0919 51.4235V63.9051C51.7583 65.0933 50.9038 66.7905 50.9038 68.6897V77.3241C50.9038 79.5983 52.1164 81.5998 53.9316 82.7564C56.1198 92.148 61.8495 98.9074 61.8495 98.9074V106.797C61.847 109.67 60.2516 112.317 57.6905 113.695Z" fill="#D4E4FF"/>
</g>
</svg>
