<svg width="170" height="58" viewBox="0 0 170 58" fill="none" xmlns="http://www.w3.org/2000/svg">
<rect width="170" height="58" rx="6" fill="#1C1C1C"/>
<path d="M34.1772 12C34.3834 13.874 33.6407 15.7207 32.5553 17.078C31.4227 18.4143 29.6108 19.4364 27.8461 19.3047C27.6151 17.5015 28.5093 15.5841 29.5102 14.4142C30.6416 13.0866 32.6062 12.0695 34.1772 12Z" fill="white"/>
<path d="M39.9542 22.8104C39.7573 22.928 36.4936 24.8759 36.5293 28.8486C36.5716 33.6459 40.7269 35.2318 40.7766 35.248C40.7517 35.3597 40.1258 37.5392 38.5672 39.7473C37.2658 41.6946 35.9022 43.5984 33.7363 43.6306C32.7063 43.655 32.0109 43.359 31.2862 43.0505C30.5307 42.7289 29.7433 42.3937 28.5118 42.3937C27.2062 42.3937 26.3838 42.74 25.5909 43.0738C24.9048 43.3627 24.2407 43.6423 23.3046 43.6803C21.2418 43.7561 19.6659 41.6039 18.3172 39.674C15.6211 35.736 13.5223 28.5766 16.3364 23.7047C17.7 21.3153 20.1862 19.7766 22.8438 19.7357C24.0141 19.7117 25.1366 20.1627 26.1205 20.5581C26.873 20.8605 27.5445 21.1303 28.0945 21.1303C28.5776 21.1303 29.2302 20.8713 29.9909 20.5694C31.1896 20.0936 32.6567 19.5113 34.1511 19.6686C35.1732 19.6984 38.0817 20.0722 39.9582 22.8081L39.9542 22.8104Z" fill="white"/>
<path fill-rule="evenodd" clip-rule="evenodd" d="M54.8941 13.0696H51.9788V21.7433H54.8941C57.4727 21.7433 58.9875 20.1384 58.9875 17.4034C58.9875 14.6745 57.4667 13.0696 54.8941 13.0696ZM53.0607 14.0433V20.7695H54.8219C56.7875 20.7695 57.8815 19.5673 57.8815 17.4154C57.8815 15.2455 56.7935 14.0433 54.8219 14.0433H53.0607Z" fill="white"/>
<path fill-rule="evenodd" clip-rule="evenodd" d="M63.1667 21.8515C61.4355 21.8515 60.2694 20.6072 60.2694 18.6176C60.2694 16.622 61.4355 15.3838 63.1667 15.3838C64.8918 15.3838 66.0579 16.622 66.0579 18.6176C66.0579 20.6072 64.8918 21.8515 63.1667 21.8515ZM64.994 18.6176C64.994 20.0903 64.2727 20.9318 63.1667 20.9318C62.0607 20.9318 61.3333 20.0903 61.3333 18.6176C61.3333 17.145 62.0607 16.3034 63.1667 16.3034C64.2727 16.3034 64.994 17.145 64.994 18.6176Z" fill="white"/>
<path d="M72.6655 21.7433H73.7294L75.4726 15.492H74.4387L73.1884 20.5772H73.1644L71.7458 15.492H70.736L69.3234 20.5772H69.2994L68.0491 15.492H67.0092L68.7584 21.7433H69.8223L71.2289 16.9045H71.2529L72.6655 21.7433Z" fill="white"/>
<path d="M77.7223 15.492H76.7365V21.7433H77.7824V18.0646C77.7824 17.0067 78.4255 16.3094 79.4113 16.3094C80.3731 16.3094 80.8479 16.8624 80.8479 17.8723V21.7433H81.8938V17.6859C81.8938 16.2674 81.1004 15.3838 79.7299 15.3838C78.7621 15.3838 78.0949 15.8165 77.7463 16.4898H77.7223V15.492Z" fill="white"/>
<path d="M83.6867 13.0696V21.7433H84.7326V13.0696H83.6867Z" fill="white"/>
<path fill-rule="evenodd" clip-rule="evenodd" d="M86.2489 18.6176C86.2489 20.6072 87.415 21.8515 89.1462 21.8515C90.8713 21.8515 92.0374 20.6072 92.0374 18.6176C92.0374 16.622 90.8713 15.3838 89.1462 15.3838C87.415 15.3838 86.2489 16.622 86.2489 18.6176ZM89.1462 20.9318C90.2522 20.9318 90.9735 20.0903 90.9735 18.6176C90.9735 17.145 90.2522 16.3034 89.1462 16.3034C88.0402 16.3034 87.3128 17.145 87.3128 18.6176C87.3128 20.0903 88.0402 20.9318 89.1462 20.9318Z" fill="white"/>
<path fill-rule="evenodd" clip-rule="evenodd" d="M95.327 21.8515C94.0827 21.8515 93.2472 21.1001 93.2472 19.9761C93.2472 18.9061 94.0707 18.2329 95.5133 18.1488L97.3046 18.0466V17.5236C97.3046 16.7603 96.7997 16.3034 95.9341 16.3034C95.1286 16.3034 94.6237 16.6821 94.4915 17.2952H93.4816C93.5538 16.2133 94.4794 15.3838 95.9581 15.3838C97.4248 15.3838 98.3505 16.1772 98.3505 17.4215V21.7433H97.3587V20.6673H97.3346C96.9619 21.3826 96.1685 21.8515 95.327 21.8515ZM97.3046 19.369C97.3046 20.2706 96.5472 20.9619 95.5614 20.9619C94.81 20.9619 94.3111 20.5712 94.3111 19.9761C94.3111 19.387 94.792 19.0143 95.6335 18.9602L97.3046 18.8581V19.369Z" fill="white"/>
<path fill-rule="evenodd" clip-rule="evenodd" d="M99.7827 18.6176C99.7827 20.5772 100.865 21.8515 102.458 21.8515C103.359 21.8515 104.074 21.4067 104.477 20.6854H104.495V21.7433H105.493V13.0696H104.447V16.5078H104.423C104.05 15.8226 103.329 15.3838 102.433 15.3838C100.859 15.3838 99.7827 16.6581 99.7827 18.6176ZM102.656 16.3034C101.55 16.3034 100.853 17.2051 100.853 18.6176C100.853 20.0362 101.55 20.9318 102.656 20.9318C103.732 20.9318 104.453 20.0182 104.453 18.6176C104.453 17.2231 103.732 16.3034 102.656 16.3034Z" fill="white"/>
<path fill-rule="evenodd" clip-rule="evenodd" d="M112.842 21.8515C111.11 21.8515 109.944 20.6072 109.944 18.6176C109.944 16.622 111.11 15.3838 112.842 15.3838C114.567 15.3838 115.733 16.622 115.733 18.6176C115.733 20.6072 114.567 21.8515 112.842 21.8515ZM114.669 18.6176C114.669 20.0903 113.948 20.9318 112.842 20.9318C111.736 20.9318 111.008 20.0903 111.008 18.6176C111.008 17.145 111.736 16.3034 112.842 16.3034C113.948 16.3034 114.669 17.145 114.669 18.6176Z" fill="white"/>
<path d="M118.181 15.492H117.195V21.7433H118.241V18.0646C118.241 17.0067 118.884 16.3094 119.87 16.3094C120.832 16.3094 121.306 16.8624 121.306 17.8723V21.7433H122.352V17.6859C122.352 16.2674 121.559 15.3838 120.188 15.3838C119.221 15.3838 118.553 15.8165 118.205 16.4898H118.181V15.492Z" fill="white"/>
<path d="M128.409 13.9832H127.363V15.492H126.431V16.3515H127.363V20.1204C127.363 21.3225 127.807 21.7914 128.956 21.7914C129.202 21.7914 129.491 21.7733 129.617 21.7433V20.8657C129.545 20.8777 129.304 20.8958 129.184 20.8958C128.649 20.8958 128.409 20.6373 128.409 20.0663V16.3515H129.623V15.492H128.409V13.9832Z" fill="white"/>
<path d="M131.199 13.0696V21.7433H132.245V18.1007C132.245 17.0187 132.888 16.3094 133.928 16.3094C134.908 16.3094 135.407 16.9045 135.407 17.8963V21.7433H136.453V17.704C136.453 16.3094 135.623 15.3838 134.253 15.3838C133.303 15.3838 132.618 15.7925 132.269 16.4898H132.245V13.0696H131.199Z" fill="white"/>
<path fill-rule="evenodd" clip-rule="evenodd" d="M143.367 19.952H142.339C142.165 20.5411 141.582 20.9438 140.788 20.9438C139.664 20.9438 138.961 20.1564 138.961 18.9602V18.9001H143.445V18.5034C143.445 16.61 142.405 15.3838 140.716 15.3838C138.991 15.3838 137.885 16.7001 137.885 18.6417C137.885 20.6072 138.973 21.8515 140.764 21.8515C142.129 21.8515 143.187 21.046 143.367 19.952ZM140.698 16.2914C139.718 16.2914 139.033 17.0428 138.967 18.0827H142.363C142.339 17.0368 141.684 16.2914 140.698 16.2914Z" fill="white"/>
<path fill-rule="evenodd" clip-rule="evenodd" d="M62.1074 43.0066L60.5926 38.5312H54.2812L52.7664 43.0066H50.0927L56.0713 26.4476H58.8484L64.827 43.0066H62.1074ZM54.9353 36.4656L57.4025 29.2017H57.4713L59.9385 36.4656H54.9353Z" fill="white"/>
<path fill-rule="evenodd" clip-rule="evenodd" d="M78.2849 36.9705C78.2849 33.1492 76.2652 30.7394 73.2013 30.7394C71.457 30.7394 70.0685 31.623 69.3571 33.0115H69.3111V30.9345H66.9128V47H69.3915V41.0213H69.4489C70.1374 42.364 71.5144 43.2131 73.2472 43.2131C76.2767 43.2131 78.2849 40.7918 78.2849 36.9705ZM72.5472 41.1131C74.5095 41.1131 75.7373 39.5066 75.7373 36.9705C75.7373 34.446 74.5095 32.8279 72.5472 32.8279C70.6538 32.8279 69.38 34.4804 69.38 36.9705C69.38 39.4836 70.6423 41.1131 72.5472 41.1131Z" fill="white"/>
<path fill-rule="evenodd" clip-rule="evenodd" d="M87.0378 30.7394C90.1018 30.7394 92.1214 33.1492 92.1214 36.9705C92.1214 40.7918 90.1132 43.2131 87.0837 43.2131C85.351 43.2131 83.9739 42.364 83.2854 41.0213H83.228V47H80.7493V30.9345H83.1477V33.0115H83.1936C83.9051 31.623 85.2936 30.7394 87.0378 30.7394ZM89.5739 36.9705C89.5739 39.5066 88.346 41.1131 86.3837 41.1131C84.4788 41.1131 83.2165 39.4836 83.2165 36.9705C83.2165 34.4804 84.4903 32.8279 86.3837 32.8279C88.346 32.8279 89.5739 34.446 89.5739 36.9705Z" fill="white"/>
<path d="M102.008 38.3935H99.4717C99.6323 41.3886 102.111 43.282 105.783 43.282C109.708 43.282 112.175 41.3427 112.175 38.2443C112.175 35.823 110.763 34.4574 107.367 33.6542L105.542 33.2066C103.408 32.6788 102.536 31.9902 102.536 30.8198C102.536 29.3509 103.901 28.3411 105.898 28.3411C107.895 28.3411 109.26 29.3394 109.409 30.9919H111.911C111.831 28.1345 109.432 26.1722 105.932 26.1722C102.398 26.1722 99.9077 28.1345 99.9077 30.9919C99.9077 33.2984 101.319 34.7214 104.36 35.4558L106.506 35.9722C108.652 36.5001 109.558 37.2689 109.558 38.5541C109.558 40.0345 108.055 41.1131 105.967 41.1131C103.786 41.1131 102.191 40.0345 102.008 38.3935Z" fill="white"/>
<path d="M117.956 28.0771H115.466V30.9345H113.71V32.8968H115.466V39.8279C115.466 42.1574 116.418 43.0869 118.862 43.0869C119.413 43.0869 119.964 43.041 120.239 42.9722V41.0099C120.079 41.0443 119.677 41.0672 119.425 41.0672C118.415 41.0672 117.956 40.5968 117.956 39.5525V32.8968H120.251V30.9345H117.956V28.0771Z" fill="white"/>
<path fill-rule="evenodd" clip-rule="evenodd" d="M122.015 36.9705C122.015 40.8607 124.287 43.2361 127.741 43.2361C131.196 43.2361 133.468 40.8607 133.468 36.9705C133.468 33.0919 131.184 30.7165 127.741 30.7165C124.299 30.7165 122.015 33.0919 122.015 36.9705ZM127.741 41.1935C129.692 41.1935 130.943 39.6558 130.943 36.9705C130.943 34.2968 129.681 32.7591 127.741 32.7591C125.802 32.7591 124.54 34.2968 124.54 36.9705C124.54 39.6558 125.802 41.1935 127.741 41.1935Z" fill="white"/>
<path d="M135.944 30.9345H138.308V32.9886H138.365C138.767 31.5771 139.845 30.7394 141.268 30.7394C141.624 30.7394 141.934 30.7968 142.117 30.8312V33.1378C141.922 33.0574 141.486 33.0001 141.004 33.0001C139.409 33.0001 138.422 34.0673 138.422 35.7771V43.0066H135.944V30.9345Z" fill="white"/>
<path fill-rule="evenodd" clip-rule="evenodd" d="M152.213 39.4693H154.565C154.221 41.6725 152.133 43.2447 149.367 43.2447C145.821 43.2447 143.675 40.8463 143.675 37.0365C143.675 33.2496 145.856 30.725 149.264 30.725C152.615 30.725 154.703 33.089 154.703 36.7496V37.5988H146.177V37.748C146.177 39.848 147.439 41.2365 149.424 41.2365C150.836 41.2365 151.88 40.525 152.213 39.4693ZM146.177 36.0086L152.213 35.9515C152.213 35.4429 152 34.5 151.5 34C151 33.5 150.264 33.1204 149.264 33.1204C147.25 33.1204 146.177 34.4657 146.177 36.0086Z" fill="white"/>
</svg>
