<svg width="170" height="58" viewBox="0 0 170 58" fill="none" xmlns="http://www.w3.org/2000/svg">
<rect width="170" height="58" rx="6" fill="#1C1C1C"/>
<path d="M52.2577 15.4538H48.7772V16.4866H51.2458C51.1237 17.935 49.9188 18.5527 48.7815 18.5527C47.3263 18.5527 46.0565 17.4077 46.0565 15.8029C46.0565 14.2397 47.2669 13.0358 48.7845 13.0358C49.9557 13.0358 50.6456 13.7821 50.6456 13.7821L51.3687 13.0333C51.3687 13.0333 50.4405 12 48.7476 12C46.592 12 44.9245 13.8194 44.9245 15.7844C44.9245 17.7102 46.4931 19.5876 48.8025 19.5876C50.8339 19.5876 52.3208 18.1963 52.3208 16.1387C52.3208 15.7046 52.2577 15.4538 52.2577 15.4538Z" fill="white"/>
<path d="M52.9134 32.0995H60.5613C60.5667 32.1213 60.6996 32.6696 60.6996 33.6041C60.6996 38.1256 57.4323 41.1833 52.969 41.1833C47.894 41.1833 44.4471 37.0575 44.4471 32.8261C44.4471 28.5079 48.1116 24.51 52.8482 24.5102C56.5681 24.5102 58.6077 26.7807 58.6077 26.7807L57.0186 28.4263C57.0186 28.4263 55.5025 26.7859 52.9294 26.7859C49.5946 26.7859 46.9348 29.4314 46.9348 32.8666C46.9348 36.3926 49.725 38.9086 52.9225 38.9086C55.4217 38.9086 58.0694 37.5514 58.3375 34.369H52.9134V32.0995Z" fill="white"/>
<path fill-rule="evenodd" clip-rule="evenodd" d="M61.6753 35.7709C61.6753 32.9093 63.9242 30.456 67.0626 30.456C69.6421 30.456 72.4395 32.2839 72.4395 35.8332C72.4395 38.9299 70.0347 41.1736 67.0992 41.1736C63.8565 41.1736 61.6753 38.6746 61.6753 35.7709ZM70.0993 35.8191C70.0993 33.8086 68.637 32.5608 67.0936 32.5608C65.3596 32.5608 64.0269 33.9472 64.0269 35.8034C64.0269 37.7004 65.3763 39.0701 67.0865 39.0701C68.643 39.0701 70.0993 37.7868 70.0993 35.8191Z" fill="white"/>
<path fill-rule="evenodd" clip-rule="evenodd" d="M78.9061 30.456C75.7679 30.456 73.5188 32.9093 73.5188 35.7709C73.5188 38.6746 75.7002 41.1736 78.943 41.1736C81.8783 41.1736 84.2832 38.9299 84.2832 35.8332C84.2832 32.2839 81.486 30.456 78.9061 30.456ZM78.9373 32.5608C80.4805 32.5608 81.943 33.8086 81.943 35.8191C81.943 37.7868 80.4867 39.0701 78.93 39.0701C77.22 39.0701 75.8708 37.7004 75.8708 35.8034C75.8708 33.9472 77.2031 32.5608 78.9373 32.5608Z" fill="white"/>
<path fill-rule="evenodd" clip-rule="evenodd" d="M85.3621 35.816C85.3621 32.9844 87.6266 30.4617 90.5068 30.4617C91.7609 30.4617 92.7056 30.947 93.3963 31.6915V30.7838H95.6431V40.4131C95.6431 44.1965 93.4603 46 90.5962 46C87.978 46 86.5072 44.3901 85.7764 42.8444L87.8361 41.9834C88.1213 42.674 88.9424 43.8917 90.5792 43.8917C92.2737 43.8917 93.3962 42.784 93.3962 40.9351V39.8784C92.7967 40.5743 91.9847 41.1807 90.4572 41.1807C87.9871 41.1807 85.3621 39.0417 85.3621 35.816ZM90.7153 32.5623C92.1277 32.5623 93.5779 33.7682 93.5779 35.8275C93.5779 37.9207 92.1307 39.0742 90.6842 39.0742C89.1487 39.0742 87.7197 37.8274 87.7197 35.8474C87.7197 33.79 89.2038 32.5623 90.7153 32.5623Z" fill="white"/>
<path fill-rule="evenodd" clip-rule="evenodd" d="M101.107 35.8005C101.107 32.6106 103.388 30.4487 106.105 30.4487C108.248 30.4487 109.868 31.8781 110.562 33.5892L110.935 34.463L103.749 37.4444C104.178 38.2435 104.871 39.0684 106.378 39.0686C107.719 39.0686 108.522 38.3395 109.003 37.5933L110.856 38.826C110.025 39.9374 108.634 41.1776 106.366 41.1776C103.65 41.1776 101.107 39.1759 101.107 35.8005ZM106.199 32.5099C107.178 32.5099 107.883 33.0302 108.182 33.6545L103.383 35.6601C103.177 34.1073 104.648 32.5099 106.199 32.5099Z" fill="white"/>
<path d="M99.8052 40.8595H97.4449V25.0644H99.8052V40.8595Z" fill="white"/>
<path d="M129.09 40.8595H131.45V25.0644H129.09V40.8595Z" fill="white"/>
<path fill-rule="evenodd" clip-rule="evenodd" d="M118.934 40.8595H116.573V25.0644L122.283 25.0642C125.05 25.0642 127.315 27.3285 127.315 30.0961C127.315 32.8635 125.05 35.1278 122.283 35.1278H118.934V40.8595ZM118.934 32.7675V27.4245H122.283C123.748 27.4245 124.955 28.6312 124.955 30.0961C124.955 31.5608 123.748 32.7675 122.283 32.7675H118.934Z" fill="white"/>
<path d="M148.876 46L155.71 30.4491H153.132L150.04 37.4862L146.947 30.4491H144.369L148.751 40.4194L146.298 46H148.876Z" fill="white"/>
<path fill-rule="evenodd" clip-rule="evenodd" d="M141.11 40.8595H143.47V35.1786C143.839 29.3196 136.411 27.9416 133.6 32.1654L135.5 33.4398C136.874 31.0371 140.796 31.5899 141.054 34.1649C139.875 33.8527 138.602 33.6264 137.438 33.7441C135.623 33.9278 134.068 35.081 133.821 36.9697C133.687 37.9904 133.915 39.2485 134.628 40.0152C135.738 41.2098 137.561 41.3708 139.059 40.9626C139.902 40.7327 140.566 40.2317 141.11 39.5846V40.8595ZM138.498 38.9038C139.79 38.552 140.808 37.6071 141.11 36.2936C140.449 36.0797 139.842 35.9071 139.145 35.8231C135.09 35.2133 135.769 39.6477 138.498 38.9038Z" fill="white"/>
<path d="M67.5574 19.4404H66.4833V12.2523H67.5574V19.4404Z" fill="white"/>
<path d="M60.468 19.4404H61.5422V13.3263H63.3053V12.2523H58.7049V13.3263H60.468V19.4404Z" fill="white"/>
<path d="M57.5724 19.4404H53.4531V12.2523H57.5724V13.3263H54.5273V15.3093H57.2058V16.3834H54.5273V18.3662H57.5724V19.4404Z" fill="white"/>
<path d="M71.269 19.4404V13.3263H73.0321V12.2523H68.4319V13.3263H70.195V19.4404H71.269Z" fill="white"/>
<path fill-rule="evenodd" clip-rule="evenodd" d="M75.7958 15.7844C75.7958 13.8192 77.4635 12 79.6191 12C81.7748 12 83.4424 13.8192 83.4424 15.7844C83.4424 17.6947 81.8986 19.5575 79.6191 19.587C77.3397 19.5575 75.7958 17.6947 75.7958 15.7844ZM79.6191 18.5522C78.1782 18.5345 76.928 17.3953 76.928 15.8029C76.928 14.2525 78.1189 13.0555 79.6191 13.0361C81.1195 13.0555 82.3103 14.2525 82.3103 15.8029C82.3103 17.3953 81.0601 18.5345 79.6191 18.5522Z" fill="white"/>
<path d="M85.5895 19.4404H84.5153V12.2523H85.5895L89.0374 17.4855V12.2523H90.1116V19.4404H89.0392L85.5895 14.2045V19.4404Z" fill="white"/>
<path d="M15.5958 20.966L27.7318 33.0838L15.6541 45.3079C15.3016 45.0839 15.1127 44.5989 15.1095 43.9725L15 22.2766C14.9967 21.5905 15.2462 21.1721 15.5958 20.966Z" fill="white"/>
<path d="M16.9763 20.9823L31.7338 29.0335L28.2338 32.5756L16.4614 20.8205C16.6397 20.8439 16.8187 20.8962 16.9763 20.9823Z" fill="white"/>
<path d="M32.39 36.7255L28.7394 33.0803L32.3863 29.3895L37.4086 32.1292C38.6458 32.8037 38.013 33.6478 37.4086 33.9785L32.39 36.7255Z" fill="white"/>
<path d="M16.9763 45.1614C16.8649 45.2237 16.7574 45.2725 16.6545 45.3113L28.2374 33.5885L31.7368 37.0827L16.9763 45.1614Z" fill="white"/>
</svg>
