<svg width="130" height="45" viewBox="0 0 130 41" fill="none" xmlns="http://www.w3.org/2000/svg">
    <path d="M50.2139 32.8061H59.1032C63.7765 32.8061 66.2655 30.3679 66.2655 27.056C66.2655 23.9778 64.0609 22.1186 61.6938 22.0069V21.8037C63.8577 21.316 65.4527 19.782 65.4527 17.3336C65.4527 14.2147 63.1364 12 58.5445 12H50.2139V32.8061ZM54.6128 29.2098V23.6831H58.3006C60.4138 23.6831 61.7243 24.9022 61.7243 26.6192C61.7243 28.1837 60.6576 29.2098 58.199 29.2098H54.6128ZM54.6128 20.7065V15.5557H57.9552C59.9058 15.5557 61.0131 16.5615 61.0131 18.0651C61.0131 19.7109 59.6721 20.7065 57.8739 20.7065H54.6128Z"
          fill="#8CB7F5"/>
    <path d="M68.5184 32.8061H72.8463V23.9778C72.8463 22.0577 74.2482 20.737 76.1582 20.737C76.7576 20.737 77.5805 20.8385 77.9868 20.9706V17.1304C77.6008 17.039 77.0624 16.978 76.6255 16.978C74.8781 16.978 73.4457 17.994 72.8767 19.9242H72.7142V17.2015H68.5184V32.8061Z"
          fill="#8CB7F5"/>
    <path d="M83.699 33.1008C86.0052 33.1008 87.4986 32.095 88.2605 30.6422H88.3824V32.8061H92.4868V22.2812C92.4868 18.5629 89.3374 16.9984 85.8629 16.9984C82.1243 16.9984 79.6658 18.7864 79.0664 21.631L83.0691 21.9561C83.3638 20.9198 84.2882 20.1579 85.8426 20.1579C87.3157 20.1579 88.1589 20.8995 88.1589 22.1796V22.2405C88.1589 23.2463 87.0922 23.3784 84.3797 23.6425C81.2913 23.927 78.5178 24.9632 78.5178 28.4478C78.5178 31.5362 80.7223 33.1008 83.699 33.1008ZM84.9384 30.1139C83.6076 30.1139 82.6526 29.4942 82.6526 28.3056C82.6526 27.0865 83.6584 26.4871 85.1823 26.2737C86.1271 26.1417 87.6713 25.9182 88.1894 25.5728V27.2287C88.1894 28.8644 86.8382 30.1139 84.9384 30.1139Z"
          fill="#8CB7F5"/>
    <path d="M99.6441 23.7847C99.6542 21.7732 100.853 20.5947 102.6 20.5947C104.338 20.5947 105.384 21.7326 105.374 23.6425V32.8061H109.702V22.8704C109.702 19.2334 107.568 16.9984 104.317 16.9984C102.001 16.9984 100.325 18.1362 99.6238 19.9547H99.4409V17.2015H95.3162V32.8061H99.6441V23.7847Z"
          fill="#8CB7F5"/>
    <path d="M118.335 33.0601C120.854 33.0601 122.165 31.6074 122.764 30.307H122.947V32.8061H127.214V12H122.896V19.8226H122.764C122.185 18.5527 120.935 16.9984 118.325 16.9984C114.901 16.9984 112.005 19.6601 112.005 25.0242C112.005 30.246 114.779 33.0601 118.335 33.0601ZM119.706 29.6161C117.583 29.6161 116.425 27.7265 116.425 25.0038C116.425 22.3015 117.563 20.4423 119.706 20.4423C121.809 20.4423 122.988 22.2202 122.988 25.0038C122.988 27.7875 121.789 29.6161 119.706 29.6161Z"
          fill="#8CB7F5"/>
    <!--    <text x="48" y="33" font-size="30" font-family="Roboto" font-weight="700" fill="#8CB7F5">Brand</text>-->
    <g opacity="0.8">
        <path fill-rule="evenodd" clip-rule="evenodd"
              d="M14.4676 2.91309H37.185C40.9489 2.91309 44.0002 6.28555 44.0002 10.4457V35.5544C44.0002 39.7145 40.9489 43.087 37.185 43.087H14.4676C10.7036 43.087 7.65234 39.7145 7.65234 35.5544L7.65234 10.4457C7.65234 6.28555 10.7036 2.91309 14.4676 2.91309Z"
              fill="#0D6EFD" fill-opacity="0.2"/>
        <path fill-rule="evenodd" clip-rule="evenodd"
              d="M8.12997 2.91309H32.043C36.0051 2.91309 39.2169 6.28555 39.2169 10.4457V35.5544C39.2169 39.7145 36.0051 43.087 32.043 43.087H8.12997C4.16792 43.087 0.956054 39.7145 0.956055 35.5544L0.956055 10.4457C0.956054 6.28555 4.16793 2.91309 8.12997 2.91309Z"
              fill="#0D6EFD"/>
        <g opacity="0.7">
            <path opacity="0.3" fill-rule="evenodd" clip-rule="evenodd"
                  d="M15.2902 19.3563H14.3097C14.2592 19.3563 14.1842 19.4266 14.1813 19.4731L13.459 31.1478L26.9549 31.1452L26.2254 19.4731C26.2226 19.4284 26.1458 19.3563 26.097 19.3563H25.1165V21.3216C25.1165 21.8643 24.6765 22.3042 24.1338 22.3042C23.5912 22.3042 23.1512 21.8643 23.1512 21.3216V19.3563H17.2555V21.3216C17.2555 21.8643 16.8156 22.3042 16.2729 22.3042C15.7302 22.3042 15.2902 21.8643 15.2902 21.3216V19.3563Z"
                  fill="white"/>
            <path fill-rule="evenodd" clip-rule="evenodd"
                  d="M20.2035 12.4783C22.9156 12.4783 25.1166 14.6796 25.1166 17.3891L26.0972 17.3914C27.1837 17.3914 28.1194 18.2704 28.187 19.3508L28.9247 31.1539C28.9923 32.2361 28.17 33.1133 27.0867 33.1133H13.3203C12.2376 33.1133 11.4149 32.2344 11.4824 31.1539L12.2201 19.3508C12.2877 18.2686 13.2215 17.3914 14.3099 17.3914H15.2904C15.2904 14.6781 17.4933 12.4783 20.2035 12.4783ZM23.1514 17.3915C23.1514 15.765 21.8302 14.4436 20.2035 14.4436C18.5781 14.4436 17.2557 15.7642 17.2557 17.3892L23.1514 17.3915ZM15.2904 19.3566H14.3099C14.2593 19.3566 14.1844 19.4269 14.1815 19.4733L13.4592 31.148L26.9551 31.1455L26.2256 19.4733C26.2228 19.4286 26.1459 19.3566 26.0972 19.3566H25.1166V21.3218C25.1166 21.8645 24.6767 22.3044 24.134 22.3044C23.5913 22.3044 23.1514 21.8645 23.1514 21.3218V19.3566H17.2557V21.3218C17.2557 21.8645 16.8157 22.3044 16.273 22.3044C15.7304 22.3044 15.2904 21.8645 15.2904 21.3218V19.3566Z"
                  fill="white"/>
        </g>
    </g>
</svg>
